<svg xmlns="http://www.w3.org/2000/svg" version="1.1" xmlns:xlink="http://www.w3.org/1999/xlink" width="512" height="512" x="0" y="0" viewBox="0 0 1000 1000" style="enable-background:new 0 0 512 512" xml:space="preserve" class=""><g><path d="M500 403.77a56.76 56.76 0 0 1-56.7-56.7 16 16 0 0 1 32 0 24.7 24.7 0 1 0 24.7-24.69 56.7 56.7 0 1 1 56.7-56.7 16 16 0 1 1-32 0 24.7 24.7 0 1 0-24.7 24.7 56.7 56.7 0 1 1 0 113.39z" fill="#ffffff" opacity="1" data-original="#000000" class=""></path><path d="M500 429a16 16 0 0 1-16-16v-25.23a16 16 0 0 1 32 0V413a16 16 0 0 1-16 16zM500 241a16 16 0 0 1-16-16v-25.23a16 16 0 1 1 32 0V225a16 16 0 0 1-16 16z" fill="#ffffff" opacity="1" data-original="#000000" class=""></path><path d="M500 475.37c-93.18 0-169-75.81-169-169s75.81-169 169-169 169 75.81 169 169-75.82 169-169 169zm0-306c-75.54 0-137 61.46-137 137s61.45 137 137 137 137-61.45 137-137-61.46-136.99-137-136.99z" fill="#ffffff" opacity="1" data-original="#000000" class=""></path><path d="M735.77 926a16 16 0 0 1-7.26-1.74L657.17 888l-71.33 36.31a16 16 0 0 1-14.52 0L500 888l-71.33 36.31a16 16 0 0 1-14.52 0L342.81 888l-71.33 36.31a16 16 0 0 1-14.52 0l-78.59-40a16 16 0 0 1-8.74-14.31V90a16 16 0 0 1 16-16h628.74a16 16 0 0 1 16 16v780a16 16 0 0 1-8.74 14.26l-78.6 40a16 16 0 0 1-7.26 1.74zm-78.6-72a16 16 0 0 1 7.26 1.74l71.34 36.31 62.6-31.86V106H201.63v754.19l62.59 31.86 71.33-36.31a16 16 0 0 1 14.52 0l71.33 36.31 71.33-36.31a16 16 0 0 1 14.52 0l71.33 36.31 71.33-36.31a16 16 0 0 1 7.26-1.74z" fill="#ffffff" opacity="1" data-original="#000000" class=""></path><path d="M730.53 584H269.47a16 16 0 0 1 0-32h461.06a16 16 0 0 1 0 32zM730.53 692.54H269.47a16 16 0 0 1 0-32h461.06a16 16 0 0 1 0 32zM730.53 801.12H269.47a16 16 0 0 1 0-32h461.06a16 16 0 0 1 0 32z" fill="#ffffff" opacity="1" data-original="#000000" class=""></path></g></svg>